# xmcd
#
# Track frame offsets: 
#        150
#        19667
#        33977
#        53360
#        69562
#        84755
#        99010
#        116040
#        127975
#        145035
#        160807
#        182310
#        200945
#        213435
#
# Disc length: 3002 seconds
#
# Revision: 2
# Processed by: cddbd v1.5.2PL0 Copyright (c) Steve Scherf et al.
# Submitted via: ExactAudioCopyFreeDBPlugin 1.0
#
DISCID=ac0bb80e
DTITLE=Kenny Rogers - The Love Collection
DYEAR=1996
DGENRE=Country
TTITLE0=She Believes In Me
TTITLE1=You Are So Beautiful
TTITLE2=I Only Have Eyes For You
TTITLE3=Evergreen
TTITLE4=I Can't Help Falling In Love
TTITLE5=You Light Up My Life
TTITLE6=When A Man Loves A Woman
TTITLE7=Always
TTITLE8=You Decorated My Life
TTITLE9=Through The Years
TTITLE10=Always And Forever
TTITLE11=My Funny Valentine
TTITLE12=Somewhere My Love
TTITLE13=Love Is A Many Splendored Thing
EXTD=YEAR: 1996 ID3G: 2
EXTT0=
EXTT1=
EXTT2=
EXTT3=
EXTT4=
EXTT5=
EXTT6=
EXTT7=
EXTT8=
EXTT9=
EXTT10=
EXTT11=
EXTT12=
EXTT13=
PLAYORDER=
